{
    "asset" : {
        "generator" : "Khronos glTF Blender I/O v1.4.40",
        "version" : "2.0"
    },
    "scene" : 0,
    "scenes" : [
        {
            "name" : "Scene",
            "nodes" : [
                0
            ]
        }
    ],
    "nodes" : [
        {
            "mesh" : 0,
            "name" : "Cube",
            "scale" : [
                1,
                0.03802336007356644,
                1
            ],
            "translation" : [
                0,
                0.6339429020881653,
                0
            ]
        }
    ],
    "materials" : [
        {
            "doubleSided" : true,
            "name" : "Material",
            "pbrMetallicRoughness" : {}
        },
        {
            "doubleSided" : true,
            "name" : "Material.001",
            "pbrMetallicRoughness" : {}
        },
        {
            "doubleSided" : true,
            "name" : "Material.002",
            "pbrMetallicRoughness" : {}
        },
        {
            "doubleSided" : true,
            "emissiveFactor" : [
                0.800000011920929,
                0.800000011920929,
                0.800000011920929
            ],
            "name" : "Material.003",
            "pbrMetallicRoughness" : {}
        },
        {
            "doubleSided" : true,
            "emissiveFactor" : [
                1,
                1,
                1
            ],
            "name" : "Material.008",
            "pbrMetallicRoughness" : {}
        },
        {
            "doubleSided" : true,
            "name" : "Material.005",
            "pbrMetallicRoughness" : {}
        },
        {
            "doubleSided" : true,
            "name" : "Material.006",
            "pbrMetallicRoughness" : {}
        },
        {
            "doubleSided" : true,
            "name" : "Material.007",
            "pbrMetallicRoughness" : {}
        },
        {
            "doubleSided" : true,
            "name" : "Material.004",
            "pbrMetallicRoughness" : {}
        }
    ],
    "meshes" : [
        {
            "name" : "Cube.001",
            "primitives" : [
                {
                    "attributes" : {
                        "POSITION" : 0,
                        "NORMAL" : 1
                    },
                    "indices" : 2,
                    "material" : 0
                },
                {
                    "attributes" : {
                        "POSITION" : 3,
                        "NORMAL" : 4
                    },
                    "indices" : 5,
                    "material" : 1
                },
                {
                    "attributes" : {
                        "POSITION" : 6,
                        "NORMAL" : 7
                    },
                    "indices" : 8,
                    "material" : 2
                },
                {
                    "attributes" : {
                        "POSITION" : 9,
                        "NORMAL" : 10
                    },
                    "indices" : 11,
                    "material" : 3
                },
                {
                    "attributes" : {
                        "POSITION" : 12,
                        "NORMAL" : 13
                    },
                    "indices" : 14,
                    "material" : 4
                },
                {
                    "attributes" : {
                        "POSITION" : 15,
                        "NORMAL" : 16
                    },
                    "indices" : 17,
                    "material" : 5
                },
                {
                    "attributes" : {
                        "POSITION" : 18,
                        "NORMAL" : 19
                    },
                    "indices" : 20,
                    "material" : 6
                },
                {
                    "attributes" : {
                        "POSITION" : 21,
                        "NORMAL" : 22
                    },
                    "indices" : 23,
                    "material" : 7
                },
                {
                    "attributes" : {
                        "POSITION" : 24,
                        "NORMAL" : 25
                    },
                    "indices" : 26,
                    "material" : 8
                }
            ]
        }
    ],
    "accessors" : [
        {
            "bufferView" : 0,
            "componentType" : 5126,
            "count" : 48084,
            "max" : [
                1,
                77.80744934082031,
                0.9268329739570618
            ],
            "min" : [
                -1,
                0.34233129024505615,
                -0.9268329739570618
            ],
            "type" : "VEC3"
        },
        {
            "bufferView" : 1,
            "componentType" : 5126,
            "count" : 48084,
            "type" : "VEC3"
        },
        {
            "bufferView" : 2,
            "componentType" : 5123,
            "count" : 131868,
            "type" : "SCALAR"
        },
        {
            "bufferView" : 3,
            "componentType" : 5126,
            "count" : 4120,
            "max" : [
                0.9920056462287903,
                77.80744934082031,
                0.8716104030609131
            ],
            "min" : [
                -0.9920056462287903,
                8.949565887451172,
                -0.8716104030609131
            ],
            "type" : "VEC3"
        },
        {
            "bufferView" : 4,
            "componentType" : 5126,
            "count" : 4120,
            "type" : "VEC3"
        },
        {
            "bufferView" : 5,
            "componentType" : 5123,
            "count" : 9720,
            "type" : "SCALAR"
        },
        {
            "bufferView" : 6,
            "componentType" : 5126,
            "count" : 5184,
            "max" : [
                0.964760959148407,
                77.4030532836914,
                0.8575990796089172
            ],
            "min" : [
                -0.964760959148407,
                1.9317094087600708,
                -0.8575990796089172
            ],
            "type" : "VEC3"
        },
        {
            "bufferView" : 7,
            "componentType" : 5126,
            "count" : 5184,
            "type" : "VEC3"
        },
        {
            "bufferView" : 8,
            "componentType" : 5123,
            "count" : 7776,
            "type" : "SCALAR"
        },
        {
            "bufferView" : 9,
            "componentType" : 5126,
            "count" : 12960,
            "max" : [
                0.6568129658699036,
                77.39874267578125,
                0.48418834805488586
            ],
            "min" : [
                -0.6568129658699036,
                7.791590213775635,
                -0.48418834805488586
            ],
            "type" : "VEC3"
        },
        {
            "bufferView" : 10,
            "componentType" : 5126,
            "count" : 12960,
            "type" : "VEC3"
        },
        {
            "bufferView" : 11,
            "componentType" : 5123,
            "count" : 19440,
            "type" : "SCALAR"
        },
        {
            "bufferView" : 12,
            "componentType" : 5126,
            "count" : 1008,
            "max" : [
                0.7642041444778442,
                -0.3780699372291565,
                0.694730281829834
            ],
            "min" : [
                -0.7807655930519104,
                -1.8992414474487305,
                -0.7037535309791565
            ],
            "type" : "VEC3"
        },
        {
            "bufferView" : 13,
            "componentType" : 5126,
            "count" : 1008,
            "type" : "VEC3"
        },
        {
            "bufferView" : 14,
            "componentType" : 5123,
            "count" : 1512,
            "type" : "SCALAR"
        },
        {
            "bufferView" : 15,
            "componentType" : 5126,
            "count" : 144,
            "max" : [
                0.9538640379905701,
                -3.6198267936706543,
                0.947778582572937
            ],
            "min" : [
                -0.6308218240737915,
                -15.553054809570312,
                -0.9576976299285889
            ],
            "type" : "VEC3"
        },
        {
            "bufferView" : 16,
            "componentType" : 5126,
            "count" : 144,
            "type" : "VEC3"
        },
        {
            "bufferView" : 17,
            "componentType" : 5123,
            "count" : 216,
            "type" : "SCALAR"
        },
        {
            "bufferView" : 18,
            "componentType" : 5126,
            "count" : 104,
            "max" : [
                0.9437784552574158,
                -3.4986062049865723,
                0.3203078806400299
            ],
            "min" : [
                0.939085066318512,
                -16.004989624023438,
                -0.33233770728111267
            ],
            "type" : "VEC3"
        },
        {
            "bufferView" : 19,
            "componentType" : 5126,
            "count" : 104,
            "type" : "VEC3"
        },
        {
            "bufferView" : 20,
            "componentType" : 5123,
            "count" : 204,
            "type" : "SCALAR"
        },
        {
            "bufferView" : 21,
            "componentType" : 5126,
            "count" : 16,
            "max" : [
                0.9423980712890625,
                -5.133903980255127,
                0.27478712797164917
            ],
            "min" : [
                0.939085066318512,
                -16.004989624023438,
                -0.28681695461273193
            ],
            "type" : "VEC3"
        },
        {
            "bufferView" : 22,
            "componentType" : 5126,
            "count" : 16,
            "type" : "VEC3"
        },
        {
            "bufferView" : 23,
            "componentType" : 5123,
            "count" : 24,
            "type" : "SCALAR"
        },
        {
            "bufferView" : 24,
            "componentType" : 5126,
            "count" : 1183,
            "max" : [
                1.2184293270111084,
                78.97608184814453,
                1
            ],
            "min" : [
                -1.0852434635162354,
                -16.606395721435547,
                -1
            ],
            "type" : "VEC3"
        },
        {
            "bufferView" : 25,
            "componentType" : 5126,
            "count" : 1183,
            "type" : "VEC3"
        },
        {
            "bufferView" : 26,
            "componentType" : 5123,
            "count" : 2736,
            "type" : "SCALAR"
        }
    ],
    "bufferViews" : [
        {
            "buffer" : 0,
            "byteLength" : 577008,
            "byteOffset" : 0
        },
        {
            "buffer" : 0,
            "byteLength" : 577008,
            "byteOffset" : 577008
        },
        {
            "buffer" : 0,
            "byteLength" : 263736,
            "byteOffset" : 1154016
        },
        {
            "buffer" : 0,
            "byteLength" : 49440,
            "byteOffset" : 1417752
        },
        {
            "buffer" : 0,
            "byteLength" : 49440,
            "byteOffset" : 1467192
        },
        {
            "buffer" : 0,
            "byteLength" : 19440,
            "byteOffset" : 1516632
        },
        {
            "buffer" : 0,
            "byteLength" : 62208,
            "byteOffset" : 1536072
        },
        {
            "buffer" : 0,
            "byteLength" : 62208,
            "byteOffset" : 1598280
        },
        {
            "buffer" : 0,
            "byteLength" : 15552,
            "byteOffset" : 1660488
        },
        {
            "buffer" : 0,
            "byteLength" : 155520,
            "byteOffset" : 1676040
        },
        {
            "buffer" : 0,
            "byteLength" : 155520,
            "byteOffset" : 1831560
        },
        {
            "buffer" : 0,
            "byteLength" : 38880,
            "byteOffset" : 1987080
        },
        {
            "buffer" : 0,
            "byteLength" : 12096,
            "byteOffset" : 2025960
        },
        {
            "buffer" : 0,
            "byteLength" : 12096,
            "byteOffset" : 2038056
        },
        {
            "buffer" : 0,
            "byteLength" : 3024,
            "byteOffset" : 2050152
        },
        {
            "buffer" : 0,
            "byteLength" : 1728,
            "byteOffset" : 2053176
        },
        {
            "buffer" : 0,
            "byteLength" : 1728,
            "byteOffset" : 2054904
        },
        {
            "buffer" : 0,
            "byteLength" : 432,
            "byteOffset" : 2056632
        },
        {
            "buffer" : 0,
            "byteLength" : 1248,
            "byteOffset" : 2057064
        },
        {
            "buffer" : 0,
            "byteLength" : 1248,
            "byteOffset" : 2058312
        },
        {
            "buffer" : 0,
            "byteLength" : 408,
            "byteOffset" : 2059560
        },
        {
            "buffer" : 0,
            "byteLength" : 192,
            "byteOffset" : 2059968
        },
        {
            "buffer" : 0,
            "byteLength" : 192,
            "byteOffset" : 2060160
        },
        {
            "buffer" : 0,
            "byteLength" : 48,
            "byteOffset" : 2060352
        },
        {
            "buffer" : 0,
            "byteLength" : 14196,
            "byteOffset" : 2060400
        },
        {
            "buffer" : 0,
            "byteLength" : 14196,
            "byteOffset" : 2074596
        },
        {
            "buffer" : 0,
            "byteLength" : 5472,
            "byteOffset" : 2088792
        }
    ],
    "buffers" : [
        {
            "byteLength" : 2094264,
            "uri" : "cityh.bin"
        }
    ]
}
