<svg id="Layer_1" data-name="Layer 1" xmlns="http://www.w3.org/2000/svg" viewBox="0 0 821.34 539.41"><defs><style>.cls-1{fill:none;stroke-width:10px;}.cls-1,.cls-2{stroke:#231f20;stroke-miterlimit:10;}.cls-2{fill:#231f20;}</style></defs>
<path class="cls-1" d="M825.57,13.61l-.91,538M14.22,12.47v538M825.55,18.55,13.34,17.22m.88,528H69.33m755.78,1.31H176.67m-163.94-113H178.89M13.48,359.89H174.82m0,5V311.44m-161.34-64H174.82m0,14.23V232.33m0-94.19v40m-164.6-40H199.11M286,17.87V138.14m-19.08,0h36.45M438,19.74V139.92M589.11,18.58v119.9m-226.67,1.44H519.78M174.16,438.31V398.76m66.51,35.8V545.22M438,434.42v110.8M678,434.56V545.22m8.45-405.3v48.86m-18.67-48.86H825.11m-254.22-1.44h36.44m79.12,101V364.87m0-82.26H821.78M342.59,433.67H543.11m-307.44.62,50.33.27m313.33,0h93.78M746.45,439V364.87m0,40.35h80.67M253.66,379.93h52.6M253.7,193.83H371.63m-116.74-4.76V384.66m127.2-4.73H449M437.15,192.72v69m-18.22-67.91H448.7m71.08-2.52v192M618.3,196v43.47M496.44,193.7H623.33m-129,185.83,125.63.8M516.67,292.19H623.33m-5,51.25v42M437.15,302.16V377.7m0-56.28h82.63m-86-70.16h82.63m101.86,50.9V282.61" transform="translate(-9.22 -12.22)"/>
<path class="cls-2" d="M561.17,145.89H547.72a4.62,4.62,0,0,1-4.61-4.61V127.83a4.62,4.62,0,0,1,4.61-4.61h13.45a4.62,4.62,0,0,1,4.61,4.61v13.45A4.62,4.62,0,0,1,561.17,145.89Z" transform="translate(-9.22 -12.22)"/>
<path class="cls-2" d="M634.67,141.28V127.83a4.62,4.62,0,0,0-4.61-4.61H616.61a4.61,4.61,0,0,0-4.61,4.61v13.45a4.61,4.61,0,0,0,4.61,4.61h13.45A4.62,4.62,0,0,0,634.67,141.28Z" transform="translate(-9.22 -12.22)"/>
<path class="cls-2" d="M329.89,141.28V127.83a4.62,4.62,0,0,0-4.61-4.61H311.83a4.62,4.62,0,0,0-4.61,4.61v13.45a4.62,4.62,0,0,0,4.61,4.61h13.45A4.62,4.62,0,0,0,329.89,141.28Z" transform="translate(-9.22 -12.22)"/>
<path class="cls-2" d="M262.07,141.28V127.83a4.61,4.61,0,0,0-4.61-4.61H244a4.61,4.61,0,0,0-4.61,4.61v13.45a4.61,4.61,0,0,0,4.61,4.61h13.44A4.61,4.61,0,0,0,262.07,141.28Z" transform="translate(-9.22 -12.22)"/>
<path class="cls-2" d="M181.48,222.11V208.66a4.6,4.6,0,0,0-4.61-4.61H163.43a4.61,4.61,0,0,0-4.62,4.61v13.45a4.62,4.62,0,0,0,4.62,4.61h13.44A4.61,4.61,0,0,0,181.48,222.11Z" transform="translate(-9.22 -12.22)"/>
<path class="cls-2" d="M181.48,286.24V272.8a4.6,4.6,0,0,0-4.61-4.61H163.43a4.61,4.61,0,0,0-4.62,4.61v13.44a4.61,4.61,0,0,0,4.62,4.61h13.44A4.6,4.6,0,0,0,181.48,286.24Z" transform="translate(-9.22 -12.22)"/>
<path class="cls-2" d="M623.33,274.91V261.46a4.61,4.61,0,0,0-4.61-4.61H605.28a4.61,4.61,0,0,0-4.61,4.61v13.45a4.61,4.61,0,0,0,4.61,4.61h13.44A4.61,4.61,0,0,0,623.33,274.91Z" transform="translate(-9.22 -12.22)"/>
<path class="cls-2" d="M623.33,325V311.54a4.61,4.61,0,0,0-4.61-4.61H605.28a4.61,4.61,0,0,0-4.61,4.61V325a4.6,4.6,0,0,0,4.61,4.61h13.44A4.6,4.6,0,0,0,623.33,325Z" transform="translate(-9.22 -12.22)"/>
<path class="cls-2" d="M452.44,289.63V276.19a4.6,4.6,0,0,0-4.61-4.61H434.39a4.6,4.6,0,0,0-4.61,4.61v13.44a4.6,4.6,0,0,0,4.61,4.61h13.44A4.6,4.6,0,0,0,452.44,289.63Z" transform="translate(-9.22 -12.22)"/>
<path class="cls-2" d="M704.15,210.77V197.33a4.61,4.61,0,0,0-4.61-4.61H686.09a4.61,4.61,0,0,0-4.61,4.61v13.44a4.61,4.61,0,0,0,4.61,4.61h13.45A4.61,4.61,0,0,0,704.15,210.77Z" transform="translate(-9.22 -12.22)"/>
<path class="cls-2" d="M737.33,371.6V358.15a4.61,4.61,0,0,0-4.61-4.61H719.28a4.61,4.61,0,0,0-4.61,4.61V371.6a4.61,4.61,0,0,0,4.61,4.61h13.44A4.61,4.61,0,0,0,737.33,371.6Z" transform="translate(-9.22 -12.22)"/>
<path class="cls-2" d="M737.33,445.72V432.28a4.6,4.6,0,0,0-4.61-4.61H719.28a4.6,4.6,0,0,0-4.61,4.61v13.44a4.6,4.6,0,0,0,4.61,4.61h13.44A4.6,4.6,0,0,0,737.33,445.72Z" transform="translate(-9.22 -12.22)"/>
<path class="cls-2" d="M595.7,448.32V434.88a4.6,4.6,0,0,0-4.61-4.61H577.65a4.6,4.6,0,0,0-4.61,4.61v13.44a4.6,4.6,0,0,0,4.61,4.61h13.44A4.6,4.6,0,0,0,595.7,448.32Z" transform="translate(-9.22 -12.22)"/>
<path class="cls-2" d="M314.7,448.32V434.88a4.6,4.6,0,0,0-4.61-4.61H296.64a4.61,4.61,0,0,0-4.61,4.61v13.44a4.61,4.61,0,0,0,4.61,4.61h13.45A4.6,4.6,0,0,0,314.7,448.32Z" transform="translate(-9.22 -12.22)"/>
<path class="cls-2" d="M94.52,529.28V515.83a4.61,4.61,0,0,0-4.61-4.61H76.47a4.61,4.61,0,0,0-4.61,4.61v13.45a4.61,4.61,0,0,0,4.61,4.61H89.91A4.61,4.61,0,0,0,94.52,529.28Z" transform="translate(-9.22 -12.22)"/>
<path class="cls-2" d="M44.83,44v-7.8a6.67,6.67,0,0,0-6.67-6.67h-7.8a6.67,6.67,0,0,0-6.67,6.67V44a6.67,6.67,0,0,0,6.67,6.67h7.8A6.67,6.67,0,0,0,44.83,44Zm-7.12-5.83,12.36-5a2.08,2.08,0,0,1,2.85,1.93c-.62,2,2,13.56-2.85,11.87L37.71,42A2.08,2.08,0,0,1,37.71,38.12Z" transform="translate(-9.22 -12.22)"/>
<path class="cls-2" d="M44.83,164.79V157a6.67,6.67,0,0,0-6.67-6.66h-7.8A6.67,6.67,0,0,0,23.69,157v7.8a6.67,6.67,0,0,0,6.67,6.67h7.8A6.67,6.67,0,0,0,44.83,164.79ZM37.71,159l12.36-5a2.08,2.08,0,0,1,2.85,1.94c-.62,2,2,13.55-2.85,11.86l-12.36-5A2.08,2.08,0,0,1,37.71,159Z" transform="translate(-9.22 -12.22)"/>
<path class="cls-2" d="M46.81,336v-7.8a6.67,6.67,0,0,0-6.66-6.67h-7.8a6.67,6.67,0,0,0-6.67,6.67V336a6.67,6.67,0,0,0,6.67,6.67h7.8A6.67,6.67,0,0,0,46.81,336Zm-7.12-5.83,12.36-5a2.08,2.08,0,0,1,2.86,1.93c-.63,2,2,13.56-2.86,11.87l-12.36-5A2.08,2.08,0,0,1,39.69,330.2Z" transform="translate(-9.22 -12.22)"/>
<path class="cls-2" d="M473.58,44v-7.8a6.67,6.67,0,0,0-6.67-6.67h-7.8a6.67,6.67,0,0,0-6.67,6.67V44a6.67,6.67,0,0,0,6.67,6.67h7.8A6.67,6.67,0,0,0,473.58,44Zm-7.12-5.83,12.36-5a2.08,2.08,0,0,1,2.85,1.93c-.62,2,2,13.56-2.85,11.87l-12.36-5A2.08,2.08,0,0,1,466.46,38.12Z" transform="translate(-9.22 -12.22)"/>
<path class="cls-2" d="M286.4,219.28v-7.8a6.67,6.67,0,0,0-6.67-6.66h-7.8a6.66,6.66,0,0,0-6.66,6.66v7.8a6.67,6.67,0,0,0,6.66,6.67h7.8A6.67,6.67,0,0,0,286.4,219.28Zm-7.12-5.83,12.36-5a2.09,2.09,0,0,1,2.86,1.94c-.63,2,2,13.55-2.86,11.86l-12.36-5A2.08,2.08,0,0,1,279.28,213.45Z" transform="translate(-9.22 -12.22)"/>
<path class="cls-2" d="M44.83,458.74v-7.8a6.67,6.67,0,0,0-6.67-6.67h-7.8a6.67,6.67,0,0,0-6.67,6.67v7.8a6.67,6.67,0,0,0,6.67,6.67h7.8A6.67,6.67,0,0,0,44.83,458.74Zm-7.12-5.83,12.36-5a2.08,2.08,0,0,1,2.85,1.93c-.62,2,2,13.56-2.85,11.87l-12.36-5A2.08,2.08,0,0,1,37.71,452.91Z" transform="translate(-9.22 -12.22)"/>
<path class="cls-2" d="M792.31,36.15V44A6.67,6.67,0,0,0,799,50.62h7.8A6.67,6.67,0,0,0,813.44,44v-7.8a6.67,6.67,0,0,0-6.66-6.67H799A6.67,6.67,0,0,0,792.31,36.15ZM799.43,42l-12.36,5c-4.86,1.69-2.23-9.86-2.86-11.87a2.08,2.08,0,0,1,2.86-1.93l12.36,5A2.08,2.08,0,0,1,799.43,42Z" transform="translate(-9.22 -12.22)"/>
<path class="cls-2" d="M794.3,157v7.8a6.67,6.67,0,0,0,6.66,6.67h7.8a6.67,6.67,0,0,0,6.67-6.67V157a6.67,6.67,0,0,0-6.67-6.66H801A6.66,6.66,0,0,0,794.3,157Zm7.12,5.83-12.36,5c-4.86,1.69-2.23-9.86-2.86-11.86a2.08,2.08,0,0,1,2.86-1.94l12.36,5A2.08,2.08,0,0,1,801.42,162.82Z" transform="translate(-9.22 -12.22)"/>
<path class="cls-2" d="M794.3,298.26v7.8a6.67,6.67,0,0,0,6.66,6.67h7.8a6.67,6.67,0,0,0,6.67-6.67v-7.8a6.67,6.67,0,0,0-6.67-6.67H801A6.67,6.67,0,0,0,794.3,298.26Zm7.12,5.83-12.36,5c-4.86,1.69-2.23-9.86-2.86-11.87a2.08,2.08,0,0,1,2.86-1.93l12.36,5A2.08,2.08,0,0,1,801.42,304.09Z" transform="translate(-9.22 -12.22)"/>
<path class="cls-2" d="M787.94,521.28v7.8a6.67,6.67,0,0,0,6.67,6.66h7.8a6.66,6.66,0,0,0,6.66-6.66v-7.8a6.67,6.67,0,0,0-6.66-6.67h-7.8A6.67,6.67,0,0,0,787.94,521.28Zm7.12,5.83-12.36,5c-4.85,1.69-2.23-9.86-2.86-11.87a2.08,2.08,0,0,1,2.86-1.93l12.36,5A2.08,2.08,0,0,1,795.06,527.11Z" transform="translate(-9.22 -12.22)"/>
<path class="cls-2" d="M399.81,521.28v7.8a6.67,6.67,0,0,0,6.67,6.66h7.8a6.66,6.66,0,0,0,6.66-6.66v-7.8a6.67,6.67,0,0,0-6.66-6.67h-7.8A6.67,6.67,0,0,0,399.81,521.28Zm7.12,5.83-12.36,5c-4.85,1.69-2.23-9.86-2.86-11.87a2.09,2.09,0,0,1,2.86-1.93l12.36,5A2.08,2.08,0,0,1,406.93,527.11Z" transform="translate(-9.22 -12.22)"/>
<path class="cls-2" d="M549.55,219.28v-7.8a6.67,6.67,0,0,0-6.67-6.66h-7.8a6.66,6.66,0,0,0-6.66,6.66v7.8a6.67,6.67,0,0,0,6.66,6.67h7.8A6.67,6.67,0,0,0,549.55,219.28Zm-7.12-5.83,12.36-5a2.08,2.08,0,0,1,2.86,1.94c-.63,2,2,13.55-2.86,11.86l-12.36-5A2.08,2.08,0,0,1,542.43,213.45Z" transform="translate(-9.22 -12.22)"/>
<path class="cls-2" d="M549.55,363.78V356a6.67,6.67,0,0,0-6.67-6.66h-7.8a6.66,6.66,0,0,0-6.66,6.66v7.8a6.67,6.67,0,0,0,6.66,6.67h7.8A6.67,6.67,0,0,0,549.55,363.78ZM542.43,358l12.36-5a2.08,2.08,0,0,1,2.86,1.93c-.63,2,2,13.56-2.86,11.87l-12.36-5A2.08,2.08,0,0,1,542.43,358Z" transform="translate(-9.22 -12.22)"/>
<path class="cls-2" d="M471.59,529.67v-7.8a6.66,6.66,0,0,0-6.67-6.66h-7.8a6.66,6.66,0,0,0-6.66,6.66v7.8a6.67,6.67,0,0,0,6.66,6.67h7.8A6.67,6.67,0,0,0,471.59,529.67Zm-7.12-5.83,12.36-5a2.08,2.08,0,0,1,2.86,1.94c-.63,2,2,13.55-2.86,11.86l-12.36-5A2.08,2.08,0,0,1,464.47,523.84Z" transform="translate(-9.22 -12.22)"/>
<path class="cls-2" d="M401.8,36.16V44a6.66,6.66,0,0,0,6.67,6.66h7.79A6.66,6.66,0,0,0,422.93,44v-7.8a6.67,6.67,0,0,0-6.67-6.67h-7.79A6.67,6.67,0,0,0,401.8,36.16ZM408.92,42l-12.36,5c-4.86,1.68-2.23-9.86-2.86-11.87a2.08,2.08,0,0,1,2.86-1.93l12.36,5A2.08,2.08,0,0,1,408.92,42Z" transform="translate(-9.22 -12.22)"/>
</svg>